<svg fill="none" height="24" viewBox="0 0 24 24" width="24" xmlns="http://www.w3.org/2000/svg"><g clip-rule="evenodd" fill="#1c274c" fill-rule="evenodd"><path d="m10.3249 7.82403c.2599.12489.4251.38767.4251.67598v6.99999c0 .4142-.3358.75-.75.75-.41419 0-.74997-.3358-.74997-.75v-5.4395l-1.28148 1.0252c-.32345.2587-.79542.2063-1.05417-.1172-.25876-.3234-.20632-.7954.11713-1.05414l2.5-2c.22512-.18011.53359-.21522.79339-.09033zm3.9251 1.42598c-.5523 0-1 .44771-1 .99999v3.5c0 .5523.4477 1 1 1s1-.4477 1-1v-3.5c0-.55228-.4477-.99999-1-.99999zm-2.5.99999c0-1.3807 1.1193-2.49999 2.5-2.49999s2.5 1.11929 2.5 2.49999v3.5c0 1.3807-1.1193 2.5-2.5 2.5s-2.5-1.1193-2.5-2.5z"/><path d="m11.324 1.67511c.1249-.25985.3877-.42511.676-.42511.7353 0 1.4541.07394 2.1492.21503 4.9071.99609 8.6008 5.33334 8.6008 10.53497 0 5.9371-4.8129 10.75-10.75 10.75-5.93706 0-10.75-4.8129-10.75-10.75 0-4.40935 2.65459-8.19702 6.44972-9.85518.37957-.16584.82171.00742.98754.38699.16584.37956-.00742.8217-.38698.98754-3.26849 1.42807-5.55028 4.68873-5.55028 8.48065 0 5.1086 4.14137 9.25 9.25 9.25 5.1086 0 9.25-4.1414 9.25-9.25 0-4.15047-2.7342-7.66378-6.5-8.83456v1.33456c0 .31852-.2012.60229-.5017.70772-.3006.10543-.635.00952-.834-.2392l-2-2.5c-.1801-.22513-.2152-.53356-.0903-.79341z"/></g></svg>